<?xml version="1.0" encoding="UTF-8"?>
<svg id="Layer_2" data-name="Layer 2" xmlns="http://www.w3.org/2000/svg" viewBox="0 0 50.77 35.34">
  <defs>
    <style>
      .cls-1 {
        fill: #966d38;
      }

      .cls-1, .cls-2 {
        stroke-width: 0px;
      }

      .cls-2 {
        fill: #be9c51;
      }
    </style>
  </defs>
  <g id="Layer_1-2" data-name="Layer 1">
    <g>
      <rect class="cls-2" x="36.14" y="15.94" width="13.14" height="2.98"/>
      <path class="cls-1" d="m43.08,7.46h-5.16v2.98h3.78c.49,0,.96.22,1.28.59l4.81,5.65-.05,12.07h-7.74c.14.39.21.81.21,1.25,0,.62-.16,1.21-.43,1.73h7.95c1.67,0,3.03-1.36,3.03-3.03v-12.82c0-.18-.07-.36-.19-.5l-6.22-7.32c-.32-.37-.79-.59-1.28-.59Z"/>
      <path class="cls-1" d="m32.93,28.26l-14.51.03c.26.52.41,1.09.41,1.7,0,.85-.28,1.63-.75,2.26l15.14-.03c-.45-.63-.72-1.4-.72-2.23,0-.63.16-1.21.43-1.74Z"/>
      <path class="cls-1" d="m36.36,26.14c.56,0,1.09.12,1.57.34V3.67c0-2.03-1.64-3.67-3.67-3.67H1.98C.89,0,0,.89,0,1.98s.89,1.98,1.98,1.98h31.97v23.03c.66-.53,1.49-.86,2.4-.86Z"/>
      <path class="cls-1" d="m11.53,28.31h-3.37s0-13.61,0-13.61h-3.97v13.78c0,.85.24,1.7.76,2.37.71.92,1.77,1.43,2.91,1.43h4.02c-.47-.65-.76-1.43-.76-2.29,0-.61.15-1.18.41-1.69Z"/>
      <path class="cls-2" d="m36.36,35.34c-2.95,0-5.34-2.4-5.34-5.34s2.4-5.34,5.34-5.34,5.34,2.4,5.34,5.34-2.4,5.34-5.34,5.34Zm0-7.71c-1.3,0-2.37,1.06-2.37,2.37s1.06,2.37,2.37,2.37,2.37-1.06,2.37-2.37-1.06-2.37-2.37-2.37Z"/>
      <path class="cls-2" d="m14.98,35.34c-2.95,0-5.34-2.4-5.34-5.34s2.4-5.34,5.34-5.34,5.34,2.4,5.34,5.34-2.4,5.34-5.34,5.34Zm0-7.71c-1.3,0-2.37,1.06-2.37,2.37s1.06,2.37,2.37,2.37,2.37-1.06,2.37-2.37-1.06-2.37-2.37-2.37Z"/>
      <path class="cls-2" d="m14.96,10.48H2.83c-.97,0-1.75-.78-1.75-1.75h0c0-.97.78-1.75,1.75-1.75h12.12c.97,0,1.75.78,1.75,1.75h0c0,.97-.78,1.75-1.75,1.75Z"/>
      <path class="cls-2" d="m10.01,15.91l-4.97-.08c-.82-.01-1.48-.69-1.46-1.51h0c.01-.82.69-1.48,1.51-1.46l4.97.08c.82.01,1.48.69,1.46,1.51h0c-.01.82-.69,1.48-1.51,1.46Z"/>
    </g>
  </g>
</svg>