<?xml version="1.0" encoding="UTF-8"?>
<svg id="Layer_2" data-name="Layer 2" xmlns="http://www.w3.org/2000/svg" viewBox="0 0 41.49 37.53">
  <defs>
    <style>
      .cls-1 {
        fill: #966d38;
      }

      .cls-1, .cls-2 {
        stroke-width: 0px;
      }

      .cls-2 {
        fill: #be9c51;
      }
    </style>
  </defs>
  <g id="Layer_1-2" data-name="Layer 1">
    <g>
      <path class="cls-1" d="m33.67,25.68H15.72c-2.02,0-3.68-1.55-3.85-3.53L6.43,3.95H1.98c-1.09,0-1.98-.88-1.98-1.98S.88,0,1.98,0h5.93c.87,0,1.64.57,1.89,1.41l5.93,19.84c.05.18.08.37.08.57l17.87-.09c0-.18-.06-.28-.01-.45l3.24-11.4h-15.17c-1.09,0-1.98-.88-1.98-1.98s.88-1.98,1.98-1.98h17.78c.62,0,1.2.29,1.58.79.37.49.49,1.13.32,1.73l-3.89,13.7c-.16,1.98-1.83,3.54-3.85,3.54Z"/>
      <circle class="cls-2" cx="13.83" cy="33.58" r="3.95"/>
      <path class="cls-2" d="m31.61,33.58c0-2.18,1.77-3.95,3.95-3.95s3.95,1.77,3.95,3.95-1.77,3.95-3.95,3.95-3.95-1.77-3.95-3.95Z"/>
    </g>
  </g>
</svg>