<?xml version="1.0" encoding="UTF-8"?>
<svg id="Layer_2" data-name="Layer 2" xmlns="http://www.w3.org/2000/svg" viewBox="0 0 39.18 45.27">
  <defs>
    <style>
      .cls-1 {
        fill: #966d38;
      }

      .cls-1, .cls-2 {
        stroke-width: 0px;
      }

      .cls-2 {
        fill: #be9c51;
      }
    </style>
  </defs>
  <g id="Layer_1-2" data-name="Layer 1">
    <g>
      <path class="cls-1" d="m36.42,45.27c-.5,0-1-.13-1.44-.4l-15.39-9.37-15.39,9.37c-.85.52-1.92.54-2.79.05-.87-.49-1.41-1.41-1.41-2.41V2.76C0,1.24,1.24,0,2.76,0h33.66c1.52,0,2.76,1.24,2.76,2.76v39.75c0,1-.54,1.92-1.41,2.41-.42.24-.89.35-1.35.35Zm.12-2.97h0s0,0,0,0Zm-16.95-9.85c.5,0,.99.14,1.44.4l15.16,9.23V3H3v39.09l15.16-9.23c.44-.27.94-.4,1.44-.4Z"/>
      <path class="cls-2" d="m20,5.5l3.16,8.78,9.32.29c.36.01.51.47.22.69l-7.37,5.71,2.61,8.95c.1.35-.29.63-.58.42l-7.71-5.25-7.71,5.25c-.3.2-.68-.08-.58-.42l2.61-8.95-7.37-5.71c-.28-.22-.14-.68.22-.69l9.32-.29,3.16-8.78c.12-.34.6-.34.72,0Z"/>
      <path class="cls-1" d="m32.47,14.57l-9.32-.29-3.16-8.78c-.06-.17-.21-.25-.36-.25v19.85l7.71,5.25c.3.2.68-.08.58-.42l-2.61-8.95,7.37-5.71c.28-.22.14-.68-.22-.69Z"/>
    </g>
  </g>
</svg>