<?xml version="1.0" encoding="UTF-8"?>
<svg id="Layer_2" data-name="Layer 2" xmlns="http://www.w3.org/2000/svg" viewBox="0 0 37.3 37.53">
  <defs>
    <style>
      .cls-1 {
        fill: #966d38;
      }

      .cls-1, .cls-2 {
        stroke-width: 0px;
      }

      .cls-2 {
        fill: #be9c51;
      }
    </style>
  </defs>
  <g id="Layer_1-2" data-name="Layer 1">
    <g>
      <g>
        <path class="cls-2" d="m6.9,9.73c-.27,0-.55-.12-.76-.35l-1.34-1.5c-.33-.37-.33-.97,0-1.34.33-.37.87-.37,1.2,0l.9,1,2.62-2.92c.33-.37.87-.37,1.2,0,.33.37.33.97,0,1.34l-3.07,3.42c-.21.23-.48.35-.76.35Z"/>
        <path class="cls-2" d="m26.12,8.61h-13.42c-.47,0-.85-.42-.85-.95s.38-.95.85-.95h13.42c.47,0,.85.42.85.95s-.38.95-.85.95Z"/>
        <path class="cls-2" d="m26.12,16.34h-13.42c-.47,0-.85-.42-.85-.95s.38-.95.85-.95h13.42c.47,0,.85.42.85.95s-.38.95-.85.95Z"/>
        <path class="cls-2" d="m6.9,25.2c-.29,0-.56-.12-.76-.35l-1.34-1.5c-.33-.37-.33-.97,0-1.34.33-.37.87-.37,1.2,0l.9,1,2.62-2.92c.33-.37.87-.37,1.2,0,.33.37.33.97,0,1.34l-3.07,3.42c-.2.23-.47.35-.76.35Z"/>
        <path class="cls-2" d="m26.12,24.07h-13.42c-.47,0-.85-.42-.85-.95s.38-.95.85-.95h13.42c.47,0,.85.42.85.95s-.38.95-.85.95Z"/>
        <ellipse class="cls-2" cx="7.27" cy="15.44" rx="1.46" ry="1.63"/>
      </g>
      <g>
        <rect class="cls-1" x="5.24" y="34.28" width="27.06" height="3.25"/>
        <path class="cls-1" d="m32.14,37.53v-3.25c1.06,0,1.92-.86,1.92-1.92v-2.98H11.89v2.2c0,3.28-2.67,5.95-5.95,5.95s-5.95-2.67-5.95-5.95V2.54C0,1.14,1.14,0,2.54,0h26.41c1.4,0,2.54,1.14,2.54,2.54l-.06,23.6h4.12c.97,0,1.76.79,1.76,1.76v4.47c0,2.85-2.32,5.17-5.17,5.17ZM3.25,3.25v28.34c0,1.49,1.21,2.69,2.69,2.69s2.69-1.21,2.69-2.69v-3.69c0-.97.79-1.76,1.76-1.76h17.77l.06-22.89H3.25Z"/>
      </g>
    </g>
  </g>
</svg>