<?xml version="1.0" encoding="UTF-8"?>
<svg id="Layer_2" data-name="Layer 2" xmlns="http://www.w3.org/2000/svg" viewBox="0 0 44.45 44.65">
  <defs>
    <style>
      .cls-1 {
        fill: #966d38;
      }

      .cls-1, .cls-2 {
        stroke-width: 0px;
      }

      .cls-2 {
        fill: #be9c51;
      }
    </style>
  </defs>
  <g id="Layer_1-2" data-name="Layer 1">
    <g>
      <path class="cls-2" d="m19.55,29.76c-.88,0-1.71-.34-2.33-.97l-4.14-4.14c-1.02-1.02-1.02-2.68,0-3.7,1.02-1.02,2.68-1.02,3.7,0l2.77,2.77,8.08-8.08c1.02-1.02,2.68-1.02,3.7,0,1.02,1.02,1.02,2.68,0,3.7l-9.44,9.44c-.62.62-1.45.97-2.33.97Z"/>
      <path class="cls-1" d="m19.85,44.65l-4.15-2.35-4.75-.46-2.84-3.83-4.15-2.35-1.03-4.66L.08,27.17l.95-4.68-1.03-4.66,2.77-3.89.95-4.68,4.11-2.42,2.77-3.89,4.74-.54,4.11-2.42,4.55,1.43,4.74-.54,3.57,3.16,4.55,1.43,1.98,4.34,3.57,3.16.04,4.77,1.98,4.34-1.9,4.38.04,4.77-3.52,3.22-1.9,4.38-4.52,1.51-3.52,3.22-4.75-.46-4.52,1.51Zm-6.75-6.62l3.82.37,3.34,1.89,3.64-1.22,3.82.37,2.83-2.6,3.64-1.22,1.53-3.52,2.83-2.6-.03-3.84,1.53-3.52-1.59-3.5-.03-3.84-2.88-2.54-1.59-3.49-3.66-1.15-2.88-2.54-3.82.44-3.66-1.15-3.31,1.95-3.82.44-2.23,3.13-3.31,1.95-.76,3.76-2.23,3.13.83,3.75-.77,3.76,2.29,3.09.83,3.75,3.34,1.89,2.29,3.09Zm22.58-.79h0,0Z"/>
    </g>
  </g>
</svg>