<?xml version="1.0" encoding="UTF-8"?>
<svg id="Layer_2" data-name="Layer 2" xmlns="http://www.w3.org/2000/svg" viewBox="0 0 39.88 40.29">
  <defs>
    <style>
      .cls-1 {
        fill: #be9c51;
      }

      .cls-1, .cls-2 {
        stroke-width: 0px;
      }

      .cls-2 {
        fill: #8c6239;
      }
    </style>
  </defs>
  <g id="Layer_1-2" data-name="Layer 1">
    <g>
      <path class="cls-1" d="m16.22,12.06c-.4,0-.81-.14-1.14-.42-.73-.62-.81-1.71-.21-2.44.23-.29.66-1.07-.08-2.1-1.42-1.99-1.51-3.54-1.33-4.49.19-.98.73-1.8,1.52-2.32.81-.52,1.89-.29,2.42.52.52.81.29,1.89-.52,2.42-.02.06-.08.68.75,1.84,1.94,2.71.79,5.37-.1,6.39-.35.4-.84.61-1.33.61Z"/>
      <path class="cls-1" d="m8.43,12.06c-.4,0-.81-.14-1.14-.42-.73-.62-.81-1.71-.21-2.44.23-.29.66-1.07-.08-2.1-1.42-1.99-1.51-3.54-1.33-4.49.19-.98.73-1.8,1.52-2.32.81-.52,1.89-.29,2.42.52.52.81.29,1.89-.52,2.42-.02.06-.08.68.75,1.84,1.94,2.71.79,5.37-.1,6.39-.35.4-.84.61-1.33.61Z"/>
      <path class="cls-1" d="m24.07,12.06c-.4,0-.81-.14-1.14-.42-.73-.62-.81-1.71-.21-2.44.23-.29.66-1.07-.08-2.1-1.42-1.99-1.51-3.54-1.33-4.49.19-.98.73-1.8,1.52-2.32.81-.52,1.9-.29,2.42.52.52.81.29,1.89-.52,2.42-.02.06-.08.68.75,1.84,1.94,2.71.79,5.37-.1,6.39-.35.4-.84.61-1.33.61Z"/>
      <g>
        <path class="cls-2" d="m16.22,40.29C.43,40.29,0,28.72,0,28.6v-14.03c0-.97.78-1.75,1.75-1.75h28.94c.97,0,1.75.78,1.75,1.75v1.93c0,.31.01.85.03,1.54.18,8.73-.04,12.48-.85,14.06-1.28,3.11-4.97,8.2-15.39,8.2ZM3.5,16.32v12.24c.01.29.45,8.23,12.72,8.23,8.05,0,11.07-3.32,12.19-6.1.03-.08.07-.16.11-.23.3-.64.64-3.32.45-12.35-.02-.72-.03-1.29-.03-1.61v-.18H3.5Z"/>
        <path class="cls-2" d="m30.69,33.13c-.28,0-.55-.02-.82-.04-.55-.05-1.05-.36-1.34-.83s-.34-1.05-.13-1.57c.49-1.23.53-2.17.53-2.18v-12.01c0-.97.78-1.75,1.75-1.75,5.07,0,9.19,4.12,9.19,9.19s-4.12,9.19-9.19,9.19Zm1.75-14.61v10.04c0,.08-.01.37-.07.81,2.32-.72,4.02-2.88,4.02-5.44s-1.66-4.68-3.94-5.42Z"/>
      </g>
    </g>
  </g>
</svg>