<?xml version="1.0" encoding="UTF-8"?>
<svg id="Capa_2" data-name="Capa 2" xmlns="http://www.w3.org/2000/svg" viewBox="0 0 95.36 94.2">
  <defs>
    <style>
      .cls-1 {
        fill: #f8f6ee;
        stroke-width: 0px;
      }
    </style>
  </defs>
  <g id="Capa_1-2" data-name="Capa 1">
    <g id="ICONOS">
      <path class="cls-1" d="m55.58,94.19c-.52-1.76-.62-29.69-.06-32.52,3.37-.51,6.89.07,10.68-.35,1.01-4.41,1.43-8.88,2.09-13.57-2.28-.48-4.34-.21-6.38-.26-2.07-.05-4.14-.01-5.98-.01-.33-.36-.53-.47-.53-.59.01-3.42-.15-6.86.13-10.26.21-2.53,2.02-4.17,4.45-4.79,1.53-.39,3.15-.44,4.74-.56,1.33-.1,2.67-.09,4.06-.12.13-.6.28-.98.29-1.35.02-2.8,0-5.6.03-8.4,0-1.06-.21-1.99-1.43-2.12-5.8-.62-11.61-1.56-17.3.68-5.66,2.24-8.84,6.55-9.66,12.42-.54,3.86-.43,7.81-.62,11.71-.05,1.02-.11,2.03-.18,3.31h-11.01c-.88,1.9-1.03,11.16-.27,13.9,3.6.47,7.36-.11,10.98.32.67,2.22.65,30.67.04,32.58C22.69,92.88.54,75.5,0,48.48-.53,21.33,22.01-.79,49.18.02c26.02.78,48.04,23.1,46.06,50.98-1.86,26.25-23.83,42.12-39.65,43.18Z"/>
    </g>
  </g>
</svg>