<?xml version="1.0" encoding="UTF-8"?>
<svg id="Capa_2" data-name="Capa 2" xmlns="http://www.w3.org/2000/svg" viewBox="0 0 95.37 95.21">
  <defs>
    <style>
      .cls-1 {
        fill: #f8f6ee;
        stroke-width: 0px;
      }
    </style>
  </defs>
  <g id="Capa_1-2" data-name="Capa 1">
    <g id="ICONOS">
      <path class="cls-1" d="m47.58,95.21C21.36,95.23.12,73.99,0,47.83-.12,21.82,20.91-.25,48.13,0c26.96.25,47.32,22.29,47.24,47.77-.08,25.79-21.03,47.54-47.78,47.44Zm-27.87-47.69c0,3.6-.01,7.2,0,10.8.04,9.76,7.11,16.99,16.87,17.25,2,.05,4,.01,6,.01,5.36,0,10.72.07,16.08-.02,9.75-.16,16.91-7.42,16.95-17.14.03-7.28.04-14.56,0-21.84-.06-9.59-7.31-16.89-16.85-16.96-7.36-.05-14.72-.06-22.08.03-1.81.02-3.72.25-5.41.85-7.43,2.64-11.51,8.57-11.55,16.47-.02,3.52,0,7.04,0,10.56Zm28.01,22.55c-3.67,0-7.35-.09-11.02.02-5.63.17-11.48-4.33-11.61-11.27-.14-7.51-.15-15.02,0-22.52.13-6.27,4.6-10.84,10.91-11.16,4.94-.26,9.9-.12,14.85-.13,2.87,0,5.76-.08,8.62.12,6.25.44,10.69,5.04,10.79,11.29.11,7.35.07,14.7.02,22.05-.05,7.33-6.22,11.88-11.78,11.63-3.59-.16-7.19-.03-10.78-.03Zm13.86-22.47c.36-7.23-5.96-13.81-13.53-13.82-7.78,0-13.86,5.97-13.87,13.73,0,7.76,6.1,13.9,13.79,13.85,7.61-.05,13.62-6.12,13.62-13.76Zm4.13-14.71c0-1.79-1.37-3.22-3.15-3.28-1.84-.06-3.42,1.45-3.42,3.28,0,1.81,1.6,3.35,3.43,3.28,1.77-.06,3.15-1.5,3.14-3.28Zm-26.52,14.75c.05,4.65,4.18,8.72,8.78,8.66,4.63-.06,8.72-4.22,8.66-8.81-.06-4.7-4.1-8.65-8.81-8.62-4.71.03-8.69,4.07-8.63,8.77Z"/>
    </g>
  </g>
</svg>