<?xml version="1.0" encoding="UTF-8"?>
<svg id="Capa_2" data-name="Capa 2" xmlns="http://www.w3.org/2000/svg" xmlns:xlink="http://www.w3.org/1999/xlink" viewBox="0 0 716.18 268.13">
  <defs>
    <style>
      .cls-1 {
        filter: url(#drop-shadow-1);
      }

      .cls-2 {
        fill: url(#Degradado_sin_nombre_45);
        stroke-width: 0px;
      }
    </style>
    <filter id="drop-shadow-1" filterUnits="userSpaceOnUse">
      <feOffset dx="-7" dy="7"/>
      <feGaussianBlur result="blur" stdDeviation="5"/>
      <feFlood flood-color="#000" flood-opacity=".75"/>
      <feComposite in2="blur" operator="in"/>
      <feComposite in="SourceGraphic"/>
    </filter>
    <linearGradient id="Degradado_sin_nombre_45" data-name="Degradado sin nombre 45" x1="5709.42" y1="4629.9" x2="5709.42" y2="4629.9" gradientUnits="userSpaceOnUse">
      <stop offset="0" stop-color="#e5af5a"/>
      <stop offset="1" stop-color="#8c6b37"/>
    </linearGradient>
  </defs>
  <g id="Capa_5" data-name="Capa 5">
    <g id="BUNA_LOGO_TEXTO_IZQ" data-name="BUNA LOGO TEXTO IZQ" class="cls-1">
      <path class="cls-2" d="m334.98,220.69h-62.02V71.1h64.37c5.87,0,11.46.79,16.61,2.36,5.29,1.61,10,4.1,14.01,7.41,4.06,3.36,7.28,7.55,9.57,12.45,2.28,4.9,3.43,10.69,3.43,17.21,0,4.73-.86,9.31-2.55,13.61-1.68,4.28-4.03,8.11-6.97,11.37-2.44,2.71-5.28,5.01-8.48,6.85,4.11,1.81,7.78,4.26,10.92,7.29,3.46,3.35,6.25,7.47,8.3,12.26,2.05,4.8,3.08,10.25,3.08,16.2,0,6.93-1.29,13.16-3.84,18.52-2.56,5.39-6.17,9.92-10.72,13.48-4.46,3.48-9.85,6.16-16.02,7.95-6.03,1.75-12.65,2.64-19.69,2.64Zm-49.59-12.46h51.36c5.33,0,10.31-.64,14.8-1.91,4.33-1.22,8.12-3.1,11.25-5.57,3.07-2.42,5.53-5.51,7.33-9.19,1.79-3.68,2.7-8.13,2.7-13.25,0-5.44-.98-10.01-2.91-13.58-1.96-3.61-4.56-6.58-7.73-8.83-3.27-2.31-7.07-4.02-11.29-5.07-4.41-1.1-8.97-1.65-13.56-1.65h-51.94v59.06Zm0-71.52h51.94c4.28,0,8.39-.57,12.21-1.7,3.7-1.09,7.01-2.77,9.83-4.99,2.77-2.18,5.01-4.93,6.68-8.18,1.64-3.2,2.47-7,2.47-11.3,0-4.74-.79-8.82-2.34-12.12-1.54-3.27-3.68-6.03-6.35-8.17-2.74-2.2-6.03-3.87-9.78-4.96-3.91-1.13-8.18-1.71-12.71-1.71h-51.94v53.13Zm372.24-65.6h-10.87l-48.03,119.74v-119.74h-12.43v127.48l-89.37-127.32h0s0-.01,0-.01l-.1-.14h-12.34v94.74c-.26,14.97-3.78,26.45-10.48,34.13-6.83,7.82-17.81,11.78-32.64,11.78s-25.81-3.96-32.64-11.78c-6.97-7.98-10.51-20.07-10.51-35.94v-92.79h-12.43v92.79c0,20.02,4.82,35.18,14.31,45.05,9.54,9.91,23.42,14.94,41.26,14.94s31.72-5.03,41.26-14.94c.64-.67,1.26-1.36,1.86-2.08v13.68h12.43v-54.93c0-.57.03-1.13.03-1.71v-70.79l89.46,127.44h13.85l18.6-46.43h65.51l18.41,46.43h13.43l-58.55-149.58Zm-33.84,90.69l28.32-71.28,27.36,71.28h-55.68Zm-444.93-17.84c-1.55,3.49-3.28,6.89-5.2,10.19-17.34,29.87-44.9,44-55.94,48.69-11.97,5.08-23.34,9.91-34.2,15.92,8.8-12.4,20.67-24.91,31.32-32.96,3.83-2.74,9.55-5.7,16.17-9.12,9.18-4.75,19.59-10.13,29.95-17.45,6.78-4.79,12.71-9.85,17.9-15.26m18.09-54.42c-.94,5.39-2.26,10.57-3.95,15.47-2.42,6.99-5.66,13.62-9.64,19.71-6.75,10.32-15.68,19.34-27.31,27.56-9.88,6.98-20.01,12.22-28.95,16.85-6.95,3.59-12.96,6.7-17.29,9.82-11.78,8.88-24.93,22.85-34.32,36.46-5.69,8.24-11.98,19.15-14.62,30.01,6.85-6.4,14.34-11.94,22.92-17.01,11.58-6.83,24.06-12.13,37.26-17.73,11.83-5.02,41.35-20.17,59.97-52.25,11.68-20.13,16.99-43.16,15.93-68.89h0Zm-19.81-44.85c7.62,30.43-2.35,57.34-29.83,80.26-7.43,6.2-15.66,11.59-23.62,16.81-8.55,5.61-17.4,11.4-25.99,18.55-11.76,9.78-21.64,19.04-31.67,32.42-2.7,3.6-5.37,7.45-8.11,11.68.49-8.77,1.69-16.58,3.61-23.75,4.58-17.09,13.39-30.27,26.91-40.3,3.39-2.52,6.81-5.09,10.12-7.58,8.04-6.05,16.34-12.3,24.65-17.98,9.67-6.62,18.33-14.07,25.73-22.13,7.44-8.11,13.84-17.07,18.99-26.65,3.62-6.71,6.7-13.86,9.21-21.34m-2.02-28.46c-.85,5.83-1.99,11.47-3.4,16.87-2.7,10.28-6.5,20-11.29,28.89-4.82,8.95-10.8,17.34-17.77,24.93-6.97,7.58-15.13,14.6-24.27,20.86-8.46,5.79-16.84,12.1-24.96,18.21-3.29,2.48-6.7,5.04-10.07,7.54-32.54,24.12-36.54,61.96-33.29,101.19,8.65-16.05,15.74-27.51,22.76-36.88,9.53-12.72,19.01-21.59,30.3-30.98,8.23-6.84,16.87-12.51,25.22-17.98,8.15-5.34,16.59-10.87,24.39-17.38,37.79-31.51,45.38-71.13,22.36-115.25h0Zm36.58,40.98c17.75,31.97,20.22,74.85,4.67,115.06-10.06,26.02-26.43,48.14-47.33,63.95-20.24,15.31-42.88,23.41-65.49,23.41-8.94,0-17.71-1.3-26.13-3.87,14.68-12.44,31.09-19.41,50.94-27.83,13.56-5.76,47.4-23.13,68.86-60.09,11.25-19.38,17.44-41.33,18.41-65.25.54-13.39-.57-27.58-3.3-42.17-.2-1.06-.41-2.13-.62-3.2m-19.16-35.9c5.15,14.02,8.98,27.67,11.42,40.67,2.62,13.96,3.68,27.51,3.17,40.26-.91,22.52-6.72,43.15-17.26,61.32-20.17,34.75-52.05,51.11-64.82,56.53-24.9,10.57-44.86,19.05-63.14,38.77,2.08.98,4.21,1.89,6.38,2.73,11.47,4.44,23.37,6.55,35.28,6.55,49.26,0,98.83-36.08,120.76-92.8,22.87-59.16,8.39-121.95-31.77-154.03h0Zm-60.93-12.78c8.6,0,17.04,1.2,25.17,3.59-4.71,34.62-20.78,60.9-48.98,80.2-8.82,6.04-17.37,12.47-25.68,18.72-3.25,2.45-6.62,4.98-9.92,7.43-10.97,8.13-19.89,18.04-26.5,29.46-5.88,10.14-10.11,21.77-12.56,34.58-2.08,10.86-2.97,22.63-2.7,35.99.02,1.12.05,2.25.09,3.39-9.25-12.71-15.93-28.05-19.35-44.82-5.37-26.35-2.74-54.42,7.61-81.17,10.06-26.02,26.43-48.14,47.33-63.95,20.24-15.31,42.88-23.41,65.49-23.41m0-8.51C82.36,0,32.79,36.08,10.87,92.8c-22.53,58.27-8.82,120.06,29.97,152.56-1.11-10.18-1.72-18.91-1.88-27.06-.26-12.75.58-23.94,2.55-34.21,2.27-11.86,6.17-22.6,11.56-31.91,6.03-10.4,14.18-19.45,24.21-26.89,3.34-2.48,6.73-5.03,10.01-7.5,8.2-6.17,16.68-12.56,25.33-18.47,32.16-22.02,49.67-52.52,53.4-93.11-11.2-4.21-22.8-6.21-34.4-6.21h0Z"/>
    </g>
  </g>
</svg>