<?xml version="1.0" encoding="UTF-8"?>
<svg id="Capa_2" data-name="Capa 2" xmlns="http://www.w3.org/2000/svg" viewBox="0 0 95.37 95.22">
  <defs>
    <style>
      .cls-1 {
        fill: #f8f6ee;
        stroke-width: 0px;
      }
    </style>
  </defs>
  <g id="Capa_1-2" data-name="Capa 1">
    <g id="ICONOS">
      <path class="cls-1" d="m47.7,0c25.68-.29,47.52,20.89,47.67,47.29.15,25.87-20.71,47.87-47.57,47.93C21.36,95.28-.08,73.86,0,47.51.09,20.32,22.43-.28,47.7,0Zm-25.59,74.36c1.44-.31,2.45-.49,3.43-.75,2.79-.72,5.59-1.4,8.34-2.24,1.85-.57,3.48-.49,5.31.27,7.73,3.24,15.49,3.06,22.97-.72,13.68-6.92,18.93-23.17,12.08-36.89-6.42-12.87-22.35-18.53-35.47-12.6-14.07,6.36-20.08,22.24-13.77,36.47.59,1.32.68,2.55.29,3.94-.99,3.46-1.88,6.95-2.8,10.43-.14.52-.2,1.05-.38,2.1Zm7.42-7.64c.51-1.99.83-3.61,1.36-5.16.59-1.71.35-3.12-.48-4.76-4.22-8.34-3.68-16.49,2.11-23.83,5.97-7.56,13.98-10.07,23.32-7.7,8.38,2.12,14.89,9.83,15.93,18.5,1.08,8.97-3.34,17.68-11.14,21.92-6.99,3.81-14.05,3.84-21.09.22-1.39-.71-2.66-.91-4.11-.46-1.14.36-2.3.67-3.47.94-.65.15-1.33.18-2.44.32Zm23.68-14.16c-3.94-1.31-6.61-3.75-8.85-6.75-.79-1.06-.75-2.03.12-3.03,1.27-1.44,1.25-3.04.46-4.69-.27-.58-.56-1.15-.82-1.74-1.45-3.34-4.71-2.64-6.23-.36-1.26,1.9-1.75,4.04-.96,6.18.71,1.93,1.62,3.84,2.77,5.54,3.72,5.51,8.8,9.21,15.29,10.85,2.93.74,6.29-.67,7.65-3.18.93-1.72.66-3.03-.96-4.14-.92-.63-1.89-1.22-2.91-1.66-1.75-.76-2.77-.44-3.99,1.04-.5.61-.99,1.22-1.58,1.95Z"/>
    </g>
  </g>
</svg>