<?xml version="1.0" encoding="UTF-8"?><svg id="Capa_2" xmlns="http://www.w3.org/2000/svg" viewBox="0 0 25.83 23.69"><defs><style>.cls-1{stroke-width:0px;}.cls-1,.cls-2{fill:#1f4437;}.cls-2{stroke:#1f4437;stroke-miterlimit:10;stroke-width:.5px;}</style></defs><g id="Layer_1"><path class="cls-2" d="m.25,16.5c.15-.12.3-.24.46-.35.92-.61,1.85-1.21,2.78-1.82.4-.26.58-.22.84.18.26.39.2.44.68.14,1.17-.73,2.34-1.44,3.5-2.18.48-.31.98-.41,1.55-.3,2.14.43,4.28.84,6.42,1.27.23.05.47.14.67.26.2.12.34.09.51-.04,1.35-1.02,2.7-2.04,4.04-3.06.75-.57,1.61-.59,2.27-.04.82.68.87,1.9.08,2.62-1.76,1.62-3.54,3.23-5.31,4.85-.68.62-1.37,1.22-2.02,1.86-.52.51-1.1.69-1.82.58-1.86-.3-3.72-.56-5.58-.86-.31-.05-.57-.03-.83.16-.15.11-.31.19-.47.28-.12.07-.14.15-.07.27.05.08.11.17.16.25.21.35.18.55-.17.78-.69.46-1.39.91-2.09,1.37-.28.18-.56.37-.84.55-.43.28-.61.24-.88-.19-1.14-1.83-2.29-3.66-3.43-5.48-.15-.25-.31-.49-.46-.74,0-.12,0-.23,0-.35Zm15.99-.36c.17-.07.41-.13.59-.27.29-.22.36-.55.27-.9-.1-.39-.37-.6-.76-.68-2.21-.43-4.41-.87-6.62-1.29-.19-.04-.43,0-.59.11-1.3.79-2.59,1.6-3.89,2.4-.15.1-.17.2-.08.35.71,1.13,1.41,2.26,2.12,3.39.08.13.17.16.31.08.24-.14.5-.27.74-.42.27-.17.54-.21.85-.16,2,.31,4,.61,6,.92.3.05.56-.02.78-.23.38-.34.75-.68,1.13-1.02,1.26-1.15,2.52-2.3,3.78-3.45.87-.79,1.74-1.58,2.59-2.38.37-.35.4-.86.1-1.21-.33-.39-.82-.47-1.23-.17-1.44,1.07-2.88,2.16-4.31,3.25-.07.06-.1.21-.1.32,0,.2.06.4.04.59-.13,1.08-1.04,1.75-2.12,1.56-.99-.18-1.98-.38-2.97-.58-.58-.11-1.16-.23-1.74-.34-.33-.07-.49-.26-.44-.52.05-.25.27-.36.59-.31.06,0,.11.02.17.03.88.17,1.76.35,2.65.52.69.13,1.37.27,2.14.42Zm-12.51-.92c-.09.04-.13.06-.18.09-.7.46-1.41.92-2.11,1.37-.17.11-.16.22-.06.38,1.08,1.72,2.15,3.44,3.23,5.16.1.16.2.19.36.08.68-.45,1.36-.9,2.05-1.33.21-.13.21-.25.09-.44-.38-.58-.73-1.17-1.1-1.76-.69-1.1-1.37-2.2-2.06-3.3-.06-.09-.14-.17-.21-.25Z"/><path class="cls-1" d="m25.83,5.45c-.12.19-.29.26-.51.26-.97,0-1.95,0-2.92,0-.07,0-.13,0-.2-.02-.19-.05-.3-.18-.31-.37,0-.19.08-.35.27-.4.13-.04.28-.05.42-.06.87,0,1.73,0,2.6,0,.25,0,.48.05.65.25v.35Z"/><path class="cls-1" d="m21.24,5.31c0,2.9-2.38,5.31-5.27,5.29-2.98-.02-5.29-2.34-5.32-5.28C10.63,2.37,13.03,0,15.97,0c2.92,0,5.27,2.38,5.27,5.31Zm-.86,0c0-2.46-1.93-4.44-4.37-4.45-2.51-.01-4.51,1.93-4.52,4.4,0,2.47,1.96,4.48,4.41,4.49,2.5.01,4.47-1.94,4.48-4.43Z"/><path class="cls-1" d="m8.03,5.71c-.48,0-.96,0-1.45,0-.33,0-.52-.16-.52-.41,0-.24.17-.42.49-.43,1-.01,2-.01,2.99,0,.31,0,.48.19.47.44,0,.24-.19.39-.51.4-.49,0-.98,0-1.47,0Z"/><path class="cls-1" d="m10.37,7.74c.09.09.24.18.3.31.09.19,0,.38-.17.49-.27.17-.56.33-.84.49-.24.14-.49.29-.74.41-.23.11-.45.04-.56-.16-.11-.2-.06-.43.16-.56.52-.31,1.05-.61,1.57-.91.06-.04.14-.04.28-.08Z"/><path class="cls-1" d="m21.67,7.77c.05.02.16.05.25.11.46.26.93.53,1.38.8.27.16.36.4.24.62-.12.22-.37.27-.65.11-.46-.26-.93-.52-1.38-.81-.13-.08-.25-.23-.3-.37-.07-.22.16-.46.46-.46Z"/><path class="cls-1" d="m10.7,2.33c0,.38-.3.59-.57.45-.57-.3-1.13-.63-1.68-.97-.18-.11-.2-.36-.08-.53.13-.19.32-.24.52-.14.31.16.61.34.91.51.22.13.45.25.66.4.12.08.19.23.24.29Z"/><path class="cls-1" d="m23.59,1.59c-.05.06-.11.22-.23.29-.49.3-.99.59-1.49.86-.25.14-.5.07-.61-.13-.12-.21-.04-.45.22-.6.47-.28.95-.56,1.43-.82.34-.19.68-.03.69.4Z"/><path class="cls-1" d="m15.51,7.47c0-.09.02-.18.02-.27,0-.4,0-.8,0-1.2,0-.22-.07-.35-.29-.43-.34-.12-.64-.32-.86-.62-.7-.94-.33-2.24.79-2.68.26-.1.37-.23.36-.51-.01-.29.16-.48.39-.49.24-.01.45.16.44.47,0,.31.14.45.41.56.63.28,1.01.78,1.07,1.48.03.31-.11.5-.36.53-.25.03-.42-.12-.47-.44-.04-.29-.16-.52-.4-.7-.14-.1-.24-.08-.24.11,0,.47,0,.95,0,1.42,0,.19.14.24.29.3.82.33,1.29,1.08,1.17,1.91-.1.69-.5,1.15-1.14,1.4-.23.09-.34.21-.33.46,0,.1,0,.23-.06.28-.1.1-.25.23-.37.23-.12,0-.27-.13-.36-.24-.06-.06-.05-.19-.05-.29.01-.23-.08-.34-.29-.42-.63-.24-1.04-.7-1.18-1.38-.01-.06-.02-.13-.02-.2,0-.28.15-.48.39-.5.22-.02.38.14.46.41.05.19.11.39.21.55.07.12.22.2.34.3.03-.02.05-.04.08-.05Zm0-2.75c0-.09.02-.18.02-.26,0-.31,0-.62,0-.92,0-.14-.05-.28-.08-.42-.14.1-.27.19-.4.3-.04.03-.06.1-.09.15-.2.47.06,1.06.55,1.16Zm.92,1.15v1.61c.37-.12.6-.45.59-.81,0-.36-.24-.7-.59-.8Z"/></g></svg>