<?xml version="1.0" encoding="UTF-8"?>
<svg id="Capa_2" data-name="Capa 2" xmlns="http://www.w3.org/2000/svg" viewBox="0 0 320.13 240.04">
  <defs>
    <style>
      .cls-1 {
        fill: #e5af5a;
        stroke-width: 0px;
      }
    </style>
  </defs>
  <g id="Capa_1-2" data-name="Capa 1">
    <g>
      <path class="cls-1" d="m159.98,48.01c-45.01,0-90.02.03-135.03-.01-14.73-.01-25.31-10.81-24.81-25.11C.57,10.69,10.48.65,22.7.05c1-.05,2-.04,3-.04C115.34,0,204.98,0,294.62,0c11.95,0,21.14,6.36,24.38,16.79,4.82,15.48-6.49,31.05-22.88,31.17-20.25.15-40.51.04-60.76.04-25.13,0-50.26,0-75.39,0Z"/>
      <path class="cls-1" d="m159.7,144.02c-44.88,0-89.77.02-134.65-.01-12.16,0-21.45-7.08-24.29-18.34-3.64-14.37,7.02-28.82,21.86-29.61,1-.05,2-.05,3-.05,89.64,0,179.28,0,268.93,0,12,0,21.16,6.29,24.45,16.7,4.83,15.31-6.28,31.02-22.39,31.24-16.37.23-32.76.06-49.13.06-29.26,0-58.51,0-87.77,0Z"/>
      <path class="cls-1" d="m160.46,192.03c44.88,0,89.77-.02,134.65.01,12.06,0,21.24,6.9,24.18,17.98,3.85,14.55-6.74,29.13-21.77,29.96-1,.06-2,.05-3,.05-89.64,0-179.28,0-268.93,0-11.94,0-21.17-6.34-24.45-16.72-4.88-15.44,6.42-31.1,22.79-31.24,19.38-.16,38.76-.04,58.14-.04,26.13,0,52.26,0,78.39,0Z"/>
    </g>
  </g>
</svg>