<?xml version="1.0" encoding="UTF-8"?><svg id="Capa_2" xmlns="http://www.w3.org/2000/svg" viewBox="0 0 25.74 25.74"><defs><style>.cls-1{fill:#1f4437;stroke-width:0px;}</style></defs><g id="Layer_1"><path class="cls-1" d="m25.74,13.18c-.15,6.97-5.96,12.78-13.27,12.56C5.48,25.53-.21,19.71,0,12.48.21,5.58,5.84-.03,12.89,0c7.29.03,12.97,5.91,12.85,13.18Zm-2.16-.26c0-5.93-4.77-10.76-10.63-10.76-5.97,0-10.78,4.76-10.79,10.69,0,5.92,4.8,10.74,10.72,10.74,5.88,0,10.71-4.8,10.71-10.66Z"/><path class="cls-1" d="m11.79,9.5c0-.98,0-1.97,0-2.95,0-.55.33-.97.82-1.09.48-.11.98.1,1.2.54.09.18.13.4.13.6.01,1.71,0,3.42,0,5.13,0,.22.06.37.22.52,1.31,1.3,2.62,2.61,3.92,3.91.33.33.45.73.28,1.17-.15.41-.46.65-.9.7-.39.05-.7-.13-.97-.4-.61-.61-1.22-1.22-1.83-1.83-.82-.82-1.63-1.64-2.45-2.45-.29-.29-.43-.62-.42-1.02,0-.95,0-1.89,0-2.84h0Z"/></g></svg>