<?xml version="1.0" encoding="UTF-8"?><svg id="Capa_2" xmlns="http://www.w3.org/2000/svg" viewBox="0 0 25.54 25.54"><defs><style>.cls-1{fill:#1f4437;stroke-width:0px;}</style></defs><g id="Layer_1"><path class="cls-1" d="m12.77,0C5.73,0,0,5.73,0,12.77s5.73,12.77,12.77,12.77c3.78,0,7.17-1.66,9.51-4.28.03-.03.06-.06.08-.09,1.97-2.25,3.18-5.18,3.18-8.4C25.54,5.73,19.81,0,12.77,0Zm7.9,5.47c-.49,1.04-1.25,1.77-1.76,1.89-.15.03-.23,0-.34-.1-1.41-1.47-2.76-1.57-3.64-1.4-1.16.22-2.82,1.19-4.17,4.51-.86,2.1-2.69,3.03-3.58,2.75-.68-.22-.48-1.38-.37-1.87.47-2.01-.03-4.17-1.44-6.28,1.93-1.83,4.53-2.95,7.39-2.95,3.12,0,5.93,1.34,7.9,3.47ZM3.1,17.48c.8.07,1.78.28,2.9.81,1.24.59,2.07,1.2,2.74,1.69,1.61,1.19,2.68,1.82,5.19.59.18.53.26,1.67-.16,2.91-.33.03-.66.05-1,.05-4.25,0-7.92-2.48-9.67-6.06Zm12.83,5.58c.32-1.72.06-3.43-.76-4.2-.51-.47-1.2-.57-1.8-.25-1.81.96-2.09.75-3.44-.24-.74-.54-1.66-1.22-3.07-1.89-1.81-.85-3.35-1.05-4.5-1.02-.22-.86-.35-1.76-.35-2.69,0-2.33.75-4.48,2.01-6.25.7,1.2,1.23,2.7.86,4.26-.59,2.53.49,3.84,1.7,4.23.29.09.6.14.92.14,1.81,0,4.05-1.42,5.11-4.04.78-1.92,1.76-3.12,2.69-3.3.58-.11,1.19.17,1.82.83.59.61,1.38.85,2.21.67.97-.21,1.92-1,2.63-2.1.48.78.86,1.63,1.12,2.53-1.91.55-4.01,1.7-4.74,3.51-.34.86-.51,2.21.63,3.79.76,1.06,1.25,2.15,1.48,3.24-1.24,1.27-2.79,2.24-4.53,2.77Zm6.03-4.72c-.33-.84-.78-1.67-1.36-2.47-.5-.69-.62-1.3-.39-1.88.37-.92,1.66-1.8,3.27-2.29.03.35.05.7.05,1.06,0,2.04-.58,3.95-1.57,5.58Z"/></g></svg>