<?xml version="1.0" encoding="UTF-8"?>
<svg id="Capa_2" data-name="Capa 2" xmlns="http://www.w3.org/2000/svg" viewBox="0 0 7.17 7.17">
  <defs>
    <style>
      .cls-1 {
        fill: #b18a44;
        stroke-width: 0px;
      }
    </style>
  </defs>
  <g id="OBJECTS">
    <path class="cls-1" d="m4.28,2.98c.07,0,.12,0,.17,0,.4,0,.8,0,1.2,0,.05,0,.1,0,.15,0,.1.01.14.04.15.14.02.12.01.25.02.38,0,.03,0,.06,0,.1.06.02.11.03.17.05.65.2,1.07.84,1.03,1.56-.04.65-.56,1.21-1.22,1.32-.32.05-.63.03-.94-.08-.03-.01-.07-.02-.1-.03-.03.03-.05.06-.07.08-.11.12-.22.24-.33.36-.2.23-.45.32-.76.31-.53-.02-1.06,0-1.59,0-.22,0-.4-.07-.56-.22-.44-.39-.77-.87-1-1.41-.24-.56-.44-1.14-.53-1.75-.03-.17-.03-.34-.04-.51,0-.04,0-.09.01-.14.03-.12.06-.15.18-.16.05,0,.1,0,.15,0,.55,0,1.1,0,1.66,0h.18c-.05-.07-.08-.13-.12-.16-.07-.06-.15-.12-.23-.17-.06-.05-.13-.1-.19-.15-.14-.14-.19-.32-.13-.52.07-.25.25-.42.5-.55-.02.09-.03.14-.04.2-.04.19,0,.36.16.49.07.06.14.12.21.18.05.05.11.09.16.14.15.14.23.3.18.53h1.02c.08-.21.07-.4-.07-.57-.07-.09-.16-.17-.25-.24-.12-.1-.25-.19-.36-.3-.29-.27-.39-.6-.29-.98.11-.41.36-.69.76-.85.02,0,.05-.01.09-.02-.04.11-.06.2-.1.28-.14.32-.06.6.17.85.09.1.19.19.28.28.11.11.22.21.32.32.24.28.29.59.16.93-.04.09-.08.18-.13.3Zm1.57,1.23c-.15.59-.36,1.15-.62,1.7.38.11.72.1,1.02-.15.28-.23.36-.55.28-.9-.08-.35-.31-.56-.68-.65Z"/>
  </g>
</svg>